<svg width="196.20001220703125px" height="134.039990234375px" xmlns="http://www.w3.org/2000/svg" viewBox="151.89999389648438 7.980004882812494 196.20001220703125 134.039990234375" style="background: none;" preserveAspectRatio="xMidYMid"><defs><filter id="editing-extrusion" x="-100%" y="-100%" width="300%" height="300%"><feFlood result="color1" flood-color="#444"></feFlood><feConvolveMatrix order="8,8" divisor="1" kernelMatrix="1 0 0 0 0 0 0 0 0 1 0 0 0 0 0 0 0 0 1 0 0 0 0 0 0 0 0 1 0 0 0 0 0 0 0 0 1 0 0 0 0 0 0 0 0 1 0 0 0 0 0 0 0 0 1 0 0 0 0 0 0 0 0 1" in="SourceAlpha" result="extrude"></feConvolveMatrix><feComposite in="color1" in2="extrude" result="comp-extrude" operator="in"></feComposite><feOffset dx="4" dy="4" in="comp-extrude" result="offset-extrude"></feOffset><feMerge><feMergeNode in="offset-extrude"></feMergeNode><feMergeNode in="SourceGraphic"></feMergeNode></feMerge></filter></defs><g filter="url(#editing-extrusion)"><g transform="translate(187.0600037574768, 98.56000137329102)"><path d="M3.19-46.06L38.25-46.06L38.25-40.94L24.50-40.94L24.50 0L16.94 0L16.94-40.94L3.19-40.94L3.19-46.06ZM73.19-9.25L78.38-4.69L78.38-4.69Q75.81-2.19 72.56-0.94L72.56-0.94L72.56-0.94Q69.31 0.31 65.56 0.31L65.56 0.31L65.56 0.31Q61.44 0.31 57.97-1.19L57.97-1.19L57.97-1.19Q54.50-2.69 51.91-5.63L51.91-5.63L51.91-5.63Q49.31-8.56 47.84-13L47.84-13L47.84-13Q46.38-17.44 46.38-23.25L46.38-23.25L46.38-23.25Q46.38-29.06 47.84-33.47L47.84-33.47L47.84-33.47Q49.31-37.88 51.91-40.81L51.91-40.81L51.91-40.81Q54.50-43.75 58-45.28L58-45.28L58-45.28Q61.50-46.81 65.56-46.81L65.56-46.81L65.56-46.81Q69.31-46.81 72.56-45.56L72.56-45.56L72.56-45.56Q75.81-44.31 78.38-41.81L78.38-41.81L73.19-37.19L73.19-37.19Q71.63-39 69.72-39.81L69.72-39.81L69.72-39.81Q67.81-40.63 65.75-40.63L65.75-40.63L65.75-40.63Q63.44-40.63 61.34-39.75L61.34-39.75L61.34-39.75Q59.25-38.88 57.59-36.78L57.59-36.78L57.59-36.78Q55.94-34.69 55-31.38L55-31.38L55-31.38Q54.06-28.06 54-23.25L54-23.25L54-23.25Q54.06-18.56 54.97-15.25L54.97-15.25L54.97-15.25Q55.88-11.94 57.47-9.84L57.47-9.84L57.47-9.84Q59.06-7.75 61.09-6.78L61.09-6.78L61.09-6.78Q63.13-5.81 65.38-5.81L65.38-5.81L65.38-5.81Q67.63-5.81 69.59-6.63L69.59-6.63L69.59-6.63Q71.56-7.44 73.19-9.25L73.19-9.25ZM107.44-23.75L122.69-23.75L122.69-5.94L122.69-5.94Q121.25-4.13 119.47-2.97L119.47-2.97L119.47-2.97Q117.69-1.81 115.72-1.06L115.72-1.06L115.72-1.06Q113.75-0.31 111.66 0L111.66 0L111.66 0Q109.56 0.31 107.50 0.31L107.50 0.31L107.50 0.31Q103.38 0.31 99.91-1.19L99.91-1.19L99.91-1.19Q96.44-2.69 93.84-5.63L93.84-5.63L93.84-5.63Q91.25-8.56 89.78-13L89.78-13L89.78-13Q88.31-17.44 88.31-23.25L88.31-23.25L88.31-23.25Q88.31-29.06 89.78-33.47L89.78-33.47L89.78-33.47Q91.25-37.88 93.84-40.81L93.84-40.81L93.84-40.81Q96.44-43.75 99.94-45.28L99.94-45.28L99.94-45.28Q103.44-46.81 107.50-46.81L107.50-46.81L107.50-46.81Q111.25-46.81 114.50-45.56L114.50-45.56L114.50-45.56Q117.75-44.31 120.31-41.81L120.31-41.81L115.13-37.19L115.13-37.19Q113.63-39 111.69-39.81L111.69-39.81L111.69-39.81Q109.75-40.63 107.69-40.63L107.69-40.63L107.69-40.63Q105.38-40.63 103.28-39.75L103.28-39.75L103.28-39.75Q101.19-38.88 99.53-36.78L99.53-36.78L99.53-36.78Q97.88-34.69 96.94-31.38L96.94-31.38L96.94-31.38Q96-28.06 95.94-23.25L95.94-23.25L95.94-23.25Q96-18.56 96.91-15.13L96.91-15.13L96.91-15.13Q97.81-11.69 99.41-9.50L99.41-9.50L99.41-9.50Q101-7.31 103.03-6.25L103.03-6.25L103.03-6.25Q105.06-5.19 107.31-5.19L107.31-5.19L107.31-5.19Q108-5.19 109.16-5.28L109.16-5.28L109.16-5.28Q110.31-5.38 111.47-5.59L111.47-5.59L111.47-5.59Q112.63-5.81 113.69-6.19L113.69-6.19L113.69-6.19Q114.75-6.56 115.25-7.25L115.25-7.25L115.25-18.63L107.44-18.63L107.44-23.75Z" fill="#ccc"></path></g></g><style>text {
  font-size: 64px;
  font-family: Arial Black;
  dominant-baseline: central;
  text-anchor: middle;
}</style></svg>